<?xml version="1.0" encoding="UTF-8"?>
<svg width="32" height="32" viewBox="0 0 32 32" fill="none" xmlns="http://www.w3.org/2000/svg">
  <rect width="32" height="32" rx="6" fill="url(#gradient)"/>
  <path d="M8 12C8 10.8954 8.89543 10 10 10H11.5858L13.4142 8.17157C13.7893 7.79642 14.298 7.58579 14.8284 7.58579H17.1716C17.702 7.58579 18.2107 7.79642 18.5858 8.17157L20.4142 10H22C23.1046 10 24 10.8954 24 12V22C24 23.1046 23.1046 24 22 24H10C8.89543 24 8 23.1046 8 22V12Z" fill="white"/>
  <circle cx="16" cy="17" r="4" fill="url(#gradient)" stroke="white" stroke-width="0.5"/>
  <circle cx="20.5" cy="13.5" r="1" fill="white"/>
  <defs>
    <linearGradient id="gradient" x1="0%" y1="0%" x2="100%" y2="100%">
      <stop offset="0%" style="stop-color:#ec4899;stop-opacity:1" />
      <stop offset="100%" style="stop-color:#8b5cf6;stop-opacity:1" />
    </linearGradient>
  </defs>
</svg> 